Coordinates
version=1
nRows=17
nColumns=24
inDegrees=yes

Units are S.I. units (second, meters, Newtons, ...)
Angles are in degrees.

endheader
time	pelvis_tilt	pelvis_list	pelvis_rotation	pelvis_tx	pelvis_ty	pelvis_tz	hip_flexion_r	hip_adduction_r	hip_rotation_r	knee_angle_r	ankle_angle_r	subtalar_angle_r	mtp_angle_r	hip_flexion_l	hip_adduction_l	hip_rotation_l	knee_angle_l	ankle_angle_l	subtalar_angle_l	mtp_angle_l	lumbar_extension	lumbar_bending	lumbar_rotation
      1.06216667	     -2.59992855	      2.55708609	     -3.64240741	      0.02250128	      1.03971300	      0.34116383	    -15.40909351	     -0.47489988	     -1.93081518	     -8.48384380	     20.11674036	      4.67422510	      0.44585821	     28.11082462	      0.69884132	     -4.62553095	     -1.56458451	     10.93830610	      4.75798451	     -0.60313655	    -11.72059389	      0.63178138	      2.74057774
      1.06633333	     -2.65457674	      2.54545841	     -3.72593621	      0.02865865	      1.03857266	      0.34094929	    -15.56611624	     -0.54789100	     -2.01128427	     -8.78038144	     20.10561372	      4.94280307	      0.63861290	     28.19793426	      0.76240652	     -4.59245973	     -1.99368042	     10.89070953	      4.72726561	     -0.60698351	    -11.61257353	      0.56418874	      2.74785332
      1.07050000	     -2.67642489	      2.54447305	     -3.80258508	      0.03483443	      1.03751027	      0.34073390	    -15.75671610	     -0.63257187	     -2.09780397	     -9.08163015	     20.05423400	      5.19692777	      0.85466149	     28.24474335	      0.84089627	     -4.52158526	     -2.45005360	     10.81214670	      4.69856913	     -0.59357497	    -11.55001719	      0.47318137	      2.76077759
      1.07466667	     -2.66477357	      2.56818175	     -3.88754296	      0.04104837	      1.03654166	      0.34052357	    -15.96867936	     -0.75515247	     -2.23810825	     -9.41018133	     20.01898151	      5.54420650	      2.02090835	     28.24824820	      0.94195233	     -4.47149106	     -2.92584821	     10.66812853	      4.66815938	     -0.44073990	    -11.52365633	      0.35784533	      2.74369772
      1.07883333	     -2.76968041	      2.54960900	     -3.95078063	      0.04729024	      1.03541414	      0.34029382	    -16.06784562	     -0.80848345	     -2.23592258	     -9.72021514	     19.89671182	      5.62350952	      2.17845819	     28.39255666	      0.99797701	     -4.32318701	     -3.46806150	     10.49300409	      4.60922641	     -0.40903266	    -11.33743521	      0.30223096	      2.76200416
      1.08300000	     -2.81806397	      2.57056865	     -4.01257892	      0.05356593	      1.03441926	      0.34003899	    -16.19808817	     -0.92167578	     -2.37898073	    -10.09166767	     19.80515770	      5.93857475	      2.46162112	     28.46367212	      1.09925308	     -4.17426792	     -4.00687910	     10.26327740	      4.54423491	     -0.33984815	    -11.23082155	      0.18238382	      2.75508667
      1.08716667	     -2.85258104	      2.59960957	     -4.06241268	      0.05987199	      1.03348760	      0.33978619	    -16.34949370	     -1.03876105	     -2.50157220	    -10.44785225	     19.62981487	      6.19939800	      2.76563931	     28.51669896	      1.21159415	     -3.98981601	     -4.55704328	      9.97816826	      4.49549701	     -0.25513364	    -11.13804716	      0.03294993	      2.73925510
      1.09133333	     -2.90421613	      2.63301572	     -4.11641563	      0.06618238	      1.03256986	      0.33951488	    -16.45359110	     -1.16680707	     -2.65089553	    -10.86394255	     19.50830148	      6.48978022	      3.22562424	     28.60216643	      1.32338423	     -3.81822549	     -5.15642667	      9.65124989	      4.36565922	     -0.11988611	    -11.01336243	     -0.08928646	      2.71629321
      1.09550000	     -2.91452898	      2.66249554	     -4.16678618	      0.07249825	      1.03179667	      0.33928130	    -16.61674066	     -1.28130045	     -2.70322185	    -11.23950861	     19.21131331	      6.55219903	      3.31881371	     28.64664268	      1.42578977	     -3.67542002	     -5.77463673	      9.29588551	      4.36176441	     -0.09508511	    -10.95596359	     -0.23367176	      2.70818678
      1.09966667	     -2.98102904	      2.71023678	     -4.20296332	      0.07884331	      1.03097235	      0.33897470	    -16.68403124	     -1.42475215	     -2.85687562	    -11.68161482	     18.90501589	      6.79322969	      7.41851002	     28.73698645	      1.55780088	     -3.37554480	     -6.36948941	      8.80840403	      4.04576191	      1.16169982	    -10.83230217	     -0.39258624	      2.66473260
      1.10383333	     -3.02426090	      2.76844793	     -4.23057817	      0.08522789	      1.03023457	      0.33868691	    -16.77269367	     -1.57493284	     -3.00543665	    -12.13934836	     18.61571470	      7.02504773	      7.46420923	     28.84179950	      1.68571208	     -3.24901643	     -7.06011953	      8.40321553	      4.07566008	      1.16914711	    -10.72255100	     -0.58547834	      2.63368927
      1.10800000	     -3.08164540	      2.82962419	     -4.25587074	      0.09159012	      1.02952496	      0.33834461	    -16.80339080	     -1.74011466	     -3.21816442	    -12.68265166	     18.38652149	      7.36521357	      7.60980035	     28.97759443	      1.81781827	     -3.09188277	     -7.79129682	      7.96863614	      3.93438162	      1.19562661	    -10.59723950	     -0.75377245	      2.58088054
      1.11216667	     -3.13072131	      2.90160768	     -4.27074375	      0.09797599	      1.02889943	      0.33799703	    -16.83501286	     -1.91451060	     -3.41821227	    -13.23596337	     18.06877988	      7.65875460	      7.83476279	     29.10406995	      1.96118983	     -2.91058376	     -8.52709365	      7.49849484	      3.76327760	      1.23257915	    -10.48199830	     -0.94961215	      2.52628064
      1.11633333	     -3.19014315	      2.96914836	     -4.28041084	      0.10435677	      1.02832391	      0.33762257	    -16.83056369	     -2.08708714	     -3.61936227	    -13.83293757	     17.71223361	      7.94241680	      8.15761311	     29.25759725	      2.09651003	     -2.73666625	     -9.30449200	      7.03426241	      3.58347446	      1.27983398	    -10.36036171	     -1.13672088	      2.46812380
      1.12050000	     -3.17633669	      3.03404035	     -4.29446624	      0.11072770	      1.02795106	      0.33729151	    -16.90591861	     -2.25374958	     -3.74186541	    -14.41210641	     17.21320367	      8.03963539	      8.25553901	     29.34682986	      2.21866715	     -2.64789369	    -10.11920813	      6.60604967	      3.51650046	      1.28734573	    -10.32637000	     -1.32983800	      2.44061002
      1.12466667	     -3.25901872	      3.11347637	     -4.27778426	      0.11711288	      1.02746385	      0.33683212	    -16.82377375	     -2.44637004	     -3.99355503	    -15.09771612	     16.72847773	      8.33463341	     12.89624977	     29.53397595	      2.37696076	     -2.37255364	    -10.92505040	      6.10286702	      3.14439152	      1.80739743	    -10.19695159	     -1.53206458	      2.35314893
      1.12883333	     -3.30028529	      3.19678802	     -4.28260849	      0.12352189	      1.02710052	      0.33643978	    -16.76573370	     -2.65068380	     -4.20552518	    -15.82323864	     16.27512089	      8.64266501	     12.97730630	     29.72041134	      2.50239987	     -2.35848767	    -11.84298399	      5.77160346	      3.12917212	      1.80417161	    -10.09685370	     -1.75198686	      2.29313282
